<?xml version="1.0" standalone="no"?>
<!DOCTYPE svg PUBLIC "-//W3C//DTD SVG 20010904//EN"
 "http://www.w3.org/TR/2001/REC-SVG-20010904/DTD/svg10.dtd">
<svg version="1.0" xmlns="http://www.w3.org/2000/svg"
 width="1024.000000pt" height="1024.000000pt" viewBox="0 0 1024.000000 1024.000000"
 preserveAspectRatio="xMidYMid meet">

<g transform="translate(0.000000,1024.000000) scale(0.100000,-0.100000)"
fill="#000000" stroke="none">
<path d="M5030 8963 c-241 -23 -526 -150 -703 -312 -173 -160 -300 -385 -354
-624 -24 -111 -24 -369 2 -472 10 -44 19 -83 20 -86 0 -4 -45 -30 -100 -58
-173 -88 -281 -195 -360 -356 -60 -122 -80 -224 -72 -370 15 -260 129 -476
355 -668 87 -74 108 -89 244 -171 l97 -58 -23 -52 c-13 -28 -58 -127 -101
-221 -68 -150 -162 -359 -201 -452 l-14 -31 98 -33 c53 -17 149 -52 212 -75
63 -24 120 -44 125 -44 6 0 32 51 59 113 54 122 258 570 262 576 2 2 55 -25
118 -59 342 -186 525 -361 691 -665 21 -38 39 -71 40 -73 1 -1 35 11 76 28 41
17 136 56 212 87 75 30 137 59 137 64 0 32 -155 297 -237 406 -122 162 -306
322 -513 447 -52 32 -253 137 -447 233 -350 174 -486 253 -574 335 -202 189
-235 404 -85 554 97 96 183 124 611 194 502 82 580 101 718 172 88 46 151 102
201 181 122 191 105 421 -42 580 -87 93 -189 137 -317 137 -175 0 -312 -89
-391 -253 -41 -86 -44 -117 -11 -117 51 0 125 -31 154 -63 28 -32 60 -94 52
-101 -8 -8 -481 -87 -502 -84 -30 4 -49 80 -50 208 -1 126 22 222 85 344 60
117 192 247 308 305 130 63 229 84 369 78 140 -6 207 -23 331 -84 80 -39 108
-60 185 -137 125 -126 188 -239 222 -399 21 -98 12 -294 -17 -397 -65 -227
-235 -427 -455 -535 -157 -76 -249 -96 -925 -200 -129 -20 -246 -42 -260 -48
-17 -9 -26 -22 -28 -43 -2 -25 4 -37 35 -64 67 -59 271 -141 434 -174 180 -37
480 -37 621 -1 34 8 63 14 64 12 2 -2 72 -143 154 -313 348 -713 534 -1084
545 -1084 7 0 92 34 190 75 98 42 189 78 202 81 12 4 23 10 23 14 0 9 -179
384 -428 895 -245 505 -255 526 -245 534 4 5 40 33 78 63 249 198 416 483 469
797 22 133 21 345 -3 468 -48 243 -161 454 -339 632 -182 181 -401 297 -657
346 -77 15 -272 25 -345 18z"/>
<path d="M6663 6850 c-65 -13 -188 -74 -274 -137 l-79 -56 0 -214 c0 -117 2
-213 5 -213 2 0 28 18 57 40 129 98 273 150 414 150 156 0 257 -43 376 -161
122 -120 178 -258 178 -440 0 -260 -133 -500 -380 -688 -217 -165 -428 -269
-1025 -506 -785 -311 -925 -370 -1145 -488 -423 -226 -685 -468 -854 -788 -55
-105 -110 -267 -131 -383 -30 -173 -14 -426 36 -581 36 -109 126 -278 203
-382 203 -272 505 -457 850 -520 122 -23 361 -22 471 2 475 101 819 397 970
834 49 144 68 260 68 416 0 206 -35 373 -133 624 -28 72 -50 134 -49 138 4 12
262 111 273 105 8 -4 181 -353 281 -567 18 -38 102 -218 187 -400 85 -181 201
-428 258 -547 l104 -218 258 0 257 0 -33 78 c-19 42 -98 212 -176 377 -78 165
-160 338 -182 385 -22 47 -42 88 -44 91 -2 3 44 14 103 23 288 47 515 158 689
338 129 133 192 239 247 413 40 128 52 245 37 361 -36 290 -176 497 -415 615
-132 65 -214 82 -370 76 -146 -5 -197 -24 -415 -153 -485 -287 -764 -409
-1740 -764 -184 -67 -377 -140 -429 -162 -440 -186 -661 -387 -763 -694 -19
-57 -22 -91 -23 -199 0 -117 3 -139 29 -218 30 -91 78 -176 149 -260 l40 -48
-29 7 c-111 26 -263 149 -320 259 -55 106 -69 160 -68 275 0 134 18 201 94
355 158 319 412 547 855 765 219 108 291 138 910 385 634 253 912 385 1160
550 337 226 529 484 622 834 23 84 26 116 26 261 0 145 -3 177 -26 261 -87
329 -284 572 -572 705 -116 53 -219 74 -365 73 -69 -1 -144 -5 -167 -9z m1157
-2717 c65 -21 143 -89 176 -155 37 -72 47 -140 33 -223 -32 -197 -199 -373
-428 -450 -85 -29 -253 -55 -347 -54 l-69 0 -65 137 c-35 75 -93 195 -127 266
-35 70 -63 132 -63 137 0 5 62 40 138 79 75 38 205 108 287 155 83 47 175 94
205 104 71 25 190 27 260 4z m-2124 -874 c37 -74 88 -212 110 -299 15 -59 19
-109 18 -240 0 -157 -2 -170 -31 -258 -103 -309 -354 -502 -653 -502 -171 0
-336 65 -434 171 -122 132 -172 314 -131 474 29 111 73 183 165 275 97 96 190
155 356 226 109 47 538 202 561 203 7 1 24 -22 39 -50z"/>
<path d="M3076 6000 c-156 -62 -246 -190 -246 -349 0 -207 181 -376 384 -358
103 8 172 41 247 116 57 57 68 76 89 139 18 59 22 85 17 140 -13 130 -94 244
-215 300 -77 36 -203 42 -276 12z"/>
<path d="M2695 4925 c-205 -45 -397 -144 -544 -281 -554 -514 -404 -1389 294
-1721 105 -50 263 -103 309 -103 51 -1 50 -10 -35 -196 -45 -98 -107 -237
-139 -309 -32 -71 -90 -200 -128 -285 l-69 -155 255 -3 c141 -1 259 1 263 5 4
5 91 195 194 423 103 228 231 512 285 630 54 118 136 301 183 405 46 105 99
222 117 260 76 166 130 287 130 294 0 4 -44 22 -97 40 -54 19 -151 56 -217 83
-65 27 -122 46 -126 41 -9 -9 -228 -489 -312 -683 l-53 -122 -75 6 c-194 18
-372 104 -498 242 -218 237 -217 569 3 789 148 149 364 217 586 186 134 -19
250 -55 659 -206 212 -78 422 -155 467 -169 l82 -27 69 66 c69 66 195 168 265
215 20 14 37 28 37 31 0 6 -144 64 -405 164 -60 24 -258 100 -439 169 -360
139 -507 187 -642 210 -108 19 -334 19 -419 1z"/>
</g>
</svg>
