<?xml version="1.0" standalone="no"?>
<!DOCTYPE svg PUBLIC "-//W3C//DTD SVG 20010904//EN"
 "http://www.w3.org/TR/2001/REC-SVG-20010904/DTD/svg10.dtd">
<svg version="1.0" xmlns="http://www.w3.org/2000/svg"
 width="64.000000pt" height="64.000000pt" viewBox="0 0 64.000000 64.000000"
 preserveAspectRatio="xMidYMid meet">

<g transform="translate(0.000000,64.000000) scale(0.100000,-0.100000)"
fill="#000000" stroke="none">
<path d="M262 498 c-7 -7 -12 -22 -12 -35 0 -13 -4 -23 -9 -23 -18 0 -18 -39
0 -56 14 -13 16 -21 8 -35 -11 -22 -6 -24 22 -6 17 10 22 9 35 -7 7 -11 17
-16 21 -12 8 7 -16 30 -68 67 -26 18 -18 39 14 39 31 0 51 15 44 34 -8 20 -27
21 -27 1 0 -8 -4 -15 -10 -15 -15 0 -12 26 4 39 19 16 56 -3 56 -28 0 -22 -19
-40 -57 -51 l-28 -8 31 -1 c25 -1 34 -7 44 -31 7 -16 16 -30 21 -30 12 0 11 7
-5 38 -12 24 -12 30 0 47 8 10 14 26 14 35 0 39 -70 66 -98 38z"/>
<path d="M366 413 c-11 -11 -6 -22 7 -17 19 7 39 -20 31 -41 -4 -9 -37 -30
-73 -47 -36 -16 -72 -36 -78 -45 -18 -24 -16 -57 5 -76 41 -38 110 -5 100 48
-7 37 11 31 28 -10 13 -33 43 -52 30 -20 -3 8 6 26 20 40 27 27 28 42 2 58
-11 7 -29 4 -64 -12 -85 -38 -97 -46 -102 -61 -4 -12 -1 -11 15 3 34 30 61 13
41 -25 -10 -21 -37 -23 -62 -5 -30 22 -3 55 68 87 73 33 89 49 84 86 -3 26
-38 51 -52 37z m69 -143 c0 -8 -10 -16 -22 -18 -22 -3 -32 16 -16 32 12 11 38
2 38 -14z"/>
<path d="M200 365 c0 -16 16 -20 24 -6 3 5 -1 11 -9 15 -9 3 -15 0 -15 -9z"/>
<path d="M171 313 c-26 -18 -27 -59 -1 -75 13 -9 18 -19 14 -35 -10 -38 4 -26
31 27 20 40 22 50 10 50 -8 0 -15 -7 -15 -15 0 -19 -24 -20 -39 -2 -8 10 -7
18 3 32 11 16 17 16 46 7 42 -15 58 -16 44 -2 -22 22 -71 29 -93 13z"/>
</g>
</svg>
